HIERARCHY
ROOT Hips
{
	OFFSET	0.00	0.00	0.00
	CHANNELS 6 Xposition Yposition Zposition Zrotation Xrotation Yrotation
	JOINT Spine
	{
		OFFSET	 0.00	0.01	 0.00
		CHANNELS 3 Zrotation Xrotation Yrotation
		JOINT Spine1
		{
			OFFSET	 0.00	 2.45913012437421	 0.00
			CHANNELS 3 Zrotation Xrotation Yrotation
            JOINT Neck
            {
                OFFSET	 0.00	 2.48462964506057	 0.00
                CHANNELS 3 Zrotation Xrotation Yrotation
                JOINT Head
                {
                    OFFSET	 0.00	 0.927524780924562	 0.00
                    CHANNELS 3 Zrotation Xrotation Yrotation
                    End Site 
                    {
                        OFFSET	 0.00	 1.14999962169752	 0.00
                    }
                }
            }
			JOINT LeftShoulder
			{
				OFFSET	 0.00	 2.48462964506057	 0.00
				CHANNELS 3 Zrotation Xrotation Yrotation
				JOINT LeftUpArm
				{
					OFFSET	 0.00	 1.24881979654096	 0.00
					CHANNELS 3 Zrotation Xrotation Yrotation
					JOINT LeftForeArm
					{
						OFFSET	 0.00	2.59758046908119	 0.00
						CHANNELS 3 Zrotation Xrotation Yrotation
						JOINT LeftHand
						{
							OFFSET	 0.00	2.45542024364365	 0.00
							CHANNELS 3 Zrotation Xrotation Yrotation
							JOINT LeftHandThumb 
							{
								OFFSET	 0.00	0.00	 0.00
								CHANNELS 3 Zrotation Xrotation Yrotation
								End Site
								{
									OFFSET	 0.00	0.00	1.00000003353624
								}
							}
							JOINT L_Wrist_End 
							{
								OFFSET	 0.00	0.99999967115358	 0.00
								CHANNELS 3 Zrotation Xrotation Yrotation
								End Site 
								{
									OFFSET	 0.00	 0.00	 0.00
								}
							}
						}
					}
				}
			}
			JOINT RightShoulder
			{
				OFFSET	 0.00	 2.48462964506057	 0.00
				CHANNELS 3 Zrotation Xrotation Yrotation
				JOINT RightUpArm
				{
					OFFSET	 0.00	 1.24881979654096	 0.00
					CHANNELS 3 Zrotation Xrotation Yrotation
					JOINT RightForeArm
					{
						OFFSET	 0.00	2.59758046908119	 0.00
						CHANNELS 3 Zrotation Xrotation Yrotation
						JOINT RightHand
						{
							OFFSET	 0.00	2.45542024364365	 0.00
							CHANNELS 3 Zrotation Xrotation Yrotation
							JOINT RightHandThumb 
							{
								OFFSET	 0.00	0.00	 0.00
								CHANNELS 3 Zrotation Xrotation Yrotation
								End Site
								{
									OFFSET	 0.00	0.00	1.00000003353624
								}
							}
							JOINT R_Wrist_End 
							{
								OFFSET	 0.00	0.99999967115358	 0.00
								CHANNELS 3 Zrotation Xrotation Yrotation
								End Site 
								{
									OFFSET	 0.00	 0.00	 0.00
								}
							}
						}
					}
				}
			}
		}
	}
	JOINT LeftUpLeg
	{
		OFFSET	 1.2719394002717	 0.00	 0.00
		CHANNELS 3 Zrotation Xrotation Yrotation
		JOINT LeftLowLeg
		{
			OFFSET	 0.00	-4.3429100912261	 0.00
			CHANNELS 3 Zrotation Xrotation Yrotation
			JOINT LeftFoot
			{
				OFFSET	 0.00	-4.48767017425826	 0.00
				CHANNELS 3 Zrotation Xrotation Yrotation
				JOINT LeftToeBase
                {
                    OFFSET	 0.00	0.00	 1.51507020887566
                    CHANNELS 3 Zrotation Xrotation Yrotation
                    End Site 
                    {
                        OFFSET	 0.00	0.00	 0.75000010571191
                    }
                }
			}
		}
	}
	JOINT RightUpLeg
	{
		OFFSET	 -1.2719393604653	 0.00	 0.00
		CHANNELS 3 Zrotation Xrotation Yrotation
		JOINT RightLowLeg
		{
			OFFSET	 0.00	-4.3429100912261	 0.00
			CHANNELS 3 Zrotation Xrotation Yrotation
			JOINT RightFoot
			{
				OFFSET	 0.00	-4.48767017425826	 0.00
				CHANNELS 3 Zrotation Xrotation Yrotation
				JOINT RightToeBase
                {
                    OFFSET	 0.00	0.00	 1.51507020887566
                    CHANNELS 3 Zrotation Xrotation Yrotation
                    End Site 
                    {
                        OFFSET	 0.00	0.00	 0.749999965609858
                    }
                }   
			}
		}
	}
}
MOTION 
Frames:	15 
Frame Time: 0.02 
  -0.8700309753417969 -9.796649780273437 10.355699462890625 -1.1197 79.9681 22.3435 1.40401 -12.6906 -1.35856 16.1817 34.6494 -8.32337 23.5703 45.3015 -47.8284 12.0612 -66.3406 -2.22317 -122.4225 -0.531361 -13.7228 -35.2359 -9.15979 -308.416 0.0 51.9232 0.0 10.9901 -8.19227 -12.1441 0.0 0.0 0.0 0.0 0.0 0.0 109.4401 -0.662417 0.610697 16.8366 13.5976 33.4237 0.0 51.9505 0.0 -9.54072 -1.99724 42.742 0.0 0.0 0.0 0.0 0.0 0.0 1.80657 9.79677 10.0722 0.0 13.6956 0.0 -5.75249 0.38739967 14.3382 0.0 -8.7523 0.0 1.0225 -4.71555 19.4869 0.0 36.5705 0.0 27.5912 11.08009 -16.8962 0.0 -19.90855 0.0 
  -0.8223300170898438 -9.775150146484375 10.36550048828125 -0.900338 80.1554 22.6651 0.912593 -13.1553 -1.76258 16.0066 34.5148 -8.58856 23.8191 45.2872 -47.9711 12.1999 -65.8609 -1.79167 -122.2498 -0.440924 -13.5019 -35.0202 -9.16473 -308.138 0.0 51.7397 0.0 10.6296 -8.13083 -11.8251 0.0 0.0 0.0 0.0 0.0 0.0 109.835 -0.767297 0.785357 17.5602 13.5024 32.2601 0.0 51.432 0.0 -9.87033 -2.96792 44.3017 0.0 0.0 0.0 0.0 0.0 0.0 1.43226 10.5093 10.4797 0.0 11.7206 0.0 -5.30727 1.2538996 13.4668 0.0 -8.59682 0.0 1.1815 -5.92852 19.0908 0.0 38.3876 0.0 28.4871 11.245871 -17.8653 0.0 -20.34441 0.0 
  -0.7785469818115235 -9.761820068359375 10.3772998046875 -1.44506 80.3895 23.9865 0.354558 -13.6135 -2.32996 16.0147 33.9597 -8.77601 23.8723 45.4135 -47.9553 11.8512 -65.3545 -2.05113 -122.260605 -0.400832 -13.2609 -34.6891 -9.28011 -307.591 0.0 51.5222 0.0 10.1992 -8.16611 -11.3125 0.0 0.0 0.0 0.0 0.0 0.0 110.157196 -1.03419 0.801563 18.3026 13.3034 30.9321 0.0 50.8575 0.0 -9.87397 -4.39411 45.9269 0.0 0.0 0.0 0.0 0.0 0.0 1.24597 11.192 10.9286 0.0 9.6138 0.0 -4.92865 2.2259998 12.2742 0.0 -8.57851 0.0 1.47003 -7.04337 18.2684 0.0 39.8919 0.0 27.9613 11.24192 -19.0099 0.0 -19.9727 0.0 
  -0.739728012084961 -9.754530029296875 10.390799560546874 -3.55536 80.5912 27.0431 -0.137966 -14.0765 -3.02165 16.2991 33.1743 -8.96457 23.5996 45.6289 -47.6272 11.2566 -65.0102 -2.87241 -122.4374 -0.416651 -13.0818 -34.3171 -9.47033 -306.898 0.0 51.2907 0.0 9.65668 -8.29148 -10.5042 0.0 0.0 0.0 0.0 0.0 0.0 110.4695 -1.30372 0.766128 18.8349 12.884 29.4587 0.0 50.2292 0.0 -9.98155 -5.78785 46.3202 0.0 0.0 0.0 0.0 0.0 0.0 1.3685 11.7483 11.0201 0.0 7.60509 0.0 -4.71003 3.0611 11.1265 0.0 -8.51824 0.0 2.06224 -7.83095 17.6181 0.0 40.6917 0.0 26.2596 11.1551 -20.3906 0.0 -20.16922 0.0 
  -0.7024079895019532 -9.749290161132812 10.39949951171875 -5.98413 80.898 30.4684 -0.728022 -14.4195 -3.79906 16.6964 31.9653 -8.96967 23.0671 45.9578 -47.0438 10.4161 -64.8477 -4.10497 -122.739 -0.509738 -12.9414 -33.953 -9.83722 -306.112 0.0 51.1025 0.0 9.06767 -8.43123 -9.49079 0.0 0.0 0.0 0.0 0.0 0.0 110.4634 -1.54089 1.47292 19.8193 11.8242 27.3845 0.0 49.5452 0.0 -9.81832 -6.24127 46.3717 0.0 0.0 0.0 0.0 0.0 0.0 1.46709 12.1004 10.539 0.0 5.75928 0.0 -4.66522 3.7203999 10.4072 0.0 -8.34967 0.0 2.61613 -8.60675 17.1571 0.0 41.2688 0.0 25.0612 10.30379 -20.9179 0.0 -20.23176 0.0 
  -0.6685569763183594 -9.747020263671875 10.40300048828125 -8.40722 81.1593 33.8855 -1.33348 -14.609 -4.53321 17.1139 30.5692 -8.80824 22.446 46.2287 -46.4565 9.40246 -64.6882 -5.57499 -123.065 -0.625823 -12.6646 -33.6257 -10.1983 -305.47 0.0 50.9855 0.0 8.39823 -8.52954 -8.914 0.0 0.0 0.0 0.0 0.0 0.0 110.55 -1.93038 1.64748 20.4053 11.0037 25.8541 0.0 48.6117 0.0 -9.61183 -6.35739 45.6112 0.0 0.0 0.0 0.0 0.0 0.0 1.58451 12.4333 9.2737 0.0 4.08814 0.0 -4.66666 4.1948004 10.3277 0.0 -8.25194 0.0 3.2052 -9.19698 17.143 0.0 41.4463 0.0 24.4722 9.43785 -20.5234 0.0 -20.67206 0.0 
  -0.6375220108032227 -9.745750122070312 10.403399658203124 -10.2036 81.4793 36.6632 -2.16836 -14.6987 -5.34797 17.7346 29.142 -8.55042 21.4465 46.5297 -45.4857 8.18129 -64.6395 -7.50113 -123.573105 -0.805182 -12.4373 -33.2704 -10.5607 -304.888 0.0 50.9145 0.0 7.7265 -8.59034 -8.21534 0.0 0.0 0.0 0.0 0.0 0.0 110.4382 -2.27685 1.70292 20.9204 10.1479 24.493 0.0 47.3393 0.0 -9.05496 -5.38994 45.0261 0.0 0.0 0.0 0.0 0.0 0.0 1.6443 12.5375 8.80026 0.0 2.89151 0.0 -4.57665 4.6240997 9.5222 0.0 -8.32609 0.0 3.69059 -9.66063 17.3997 0.0 41.2625 0.0 23.7123 8.7457 -19.8498 0.0 -21.663109 0.0 
  -0.609182014465332 -9.744959716796876 10.398800048828125 -11.4797 81.8468 38.9139 -3.1545 -14.7461 -6.1974 18.5294 27.8136 -8.24521 20.0141 46.6917 -44.1653 6.56907 -64.5499 -9.8645 -124.1082 -0.946439 -12.3158 -33.0036 -11.0019 -304.382 0.0 50.8926 0.0 7.20309 -8.64573 -7.37336 0.0 0.0 0.0 0.0 0.0 0.0 110.1502 -2.59871 1.57496 21.2983 9.49255 22.8999 0.0 46.1051 0.0 -9.6429 -5.68567 44.7855 0.0 0.0 0.0 0.0 0.0 0.0 1.62379 12.5072 8.22202 0.0 1.99256 0.0 -4.52198 4.8882 8.83788 0.0 -8.38726 0.0 4.09158 -10.0533 17.8667 0.0 40.8575 0.0 22.6006 8.14771 -19.2387 0.0 -22.12212 0.0 
  -0.5818190002441406 -9.746259765625 10.390999755859376 -11.5422 82.1846 39.9243 -4.14513 -14.7338 -6.95753 19.1714 26.692 -7.94919 18.6093 46.8668 -42.8888 4.93999 -64.5455 -12.2351 -124.587204 -1.11539 -12.2087 -32.7597 -11.3814 -304.009 0.0 50.8916 0.0 6.88162 -8.74156 -6.69151 0.0 0.0 0.0 0.0 0.0 0.0 109.8868 -2.84189 1.45178 21.5645 9.04697 21.2489 0.0 44.5701 0.0 -9.85995 -6.42884 44.6345 0.0 0.0 0.0 0.0 0.0 0.0 1.48051 12.4194 7.50741 0.0 1.50021 0.0 -4.40276 5.0121 8.46036 0.0 -8.36001 0.0 4.39558 -10.2411 18.5354 0.0 40.227 0.0 21.848 7.59341 -18.8602 0.0 -22.77764 0.0 
  -0.5539680099487305 -9.747550048828124 10.380999755859374 -10.236 82.542 39.4694 -5.03564 -14.7687 -7.50164 19.4482 25.9442 -7.70726 17.2645 46.932 -41.6319 3.58433 -64.5186 -14.2625 -124.914 -1.31066 -12.0897 -32.5671 -11.6166 -303.917 0.0 50.9064 0.0 6.84092 -8.88587 -6.25549 0.0 0.0 0.0 0.0 0.0 0.0 109.672195 -3.00867 1.3827 21.8854 8.73106 19.4549 0.0 42.7983 0.0 -9.63031 -6.54145 43.8351 0.0 0.0 0.0 0.0 0.0 0.0 1.16406 12.2354 6.97639 0.0 1.40871 0.0 -4.23324 5.0627604 8.13456 0.0 -8.28386 0.0 4.5687 -10.3054 19.4332 0.0 39.4973 0.0 21.8655 7.09897 -18.6658 0.0 -23.13718 0.0 
  -0.5240639877319336 -9.749669799804687 10.37 -7.47767 82.8351 37.3617 -5.62037 -14.9334 -7.66566 19.2687 25.7157 -7.52976 15.8867 46.9099 -40.3106 2.39761 -64.5136 -16.168 -125.1243 -1.39284 -12.0955 -32.2961 -11.813 -304.056 0.0 50.928 0.0 6.98948 -8.90868 -6.13058 0.0 0.0 0.0 0.0 0.0 0.0 109.7208 -3.09336 1.54479 22.0181 8.9088 17.7335 0.0 40.3311 0.0 -9.23414 -6.39913 41.2898 0.0 0.0 0.0 0.0 0.0 0.0 0.685104 12.2001 6.30233 0.0 1.41371 0.0 -4.13573 5.0672197 8.24507 0.0 -8.17148 0.0 4.6672 -10.2067 20.4422 0.0 38.7386 0.0 21.6349 6.53026 -18.7236 0.0 -23.08973 0.0 
  -0.4933140182495117 -9.754829711914063 10.3602001953125 -3.84669 82.9274 34.1932 -5.95274 -15.2128 -7.52032 18.8938 26.0063 -7.41611 14.5821 46.7563 -39.0702 1.30769 -64.4903 -17.7659 -125.2424 -1.40571 -12.1081 -32.047 -11.8351 -304.423 0.0 50.988 0.0 7.22367 -8.91863 -6.57767 0.0 0.0 0.0 0.0 0.0 0.0 109.7288 -2.98148 1.80765 22.1752 9.16774 15.7461 0.0 37.6034 0.0 -8.83104 -6.4626 37.5367 0.0 0.0 0.0 0.0 0.0 0.0 0.231894 12.3484 6.37466 0.0 1.56818 0.0 -4.02271 5.0586796 7.8034 0.0 -8.19728 0.0 4.80899 -9.86059 21.5473 0.0 37.8816 0.0 21.1022 6.12906 -18.9552 0.0 -23.21229 0.0 
  -0.46090801239013673 -9.761810302734375 10.351800537109375 -0.00700726 82.9032 30.6622 -5.93344 -15.7156 -7.00619 18.1247 26.8009 -7.37937 13.4809 46.4614 -38.0344 0.566542 -64.4458 -19.0678 -125.1573 -1.36857 -12.1626 -31.8398 -11.6887 -304.987 0.0 51.0965 0.0 7.58126 -8.86736 -6.99133 0.0 0.0 0.0 0.0 0.0 0.0 109.8812 -2.62229 2.04036 22.236 9.50239 13.6828 0.0 34.6325 0.0 -8.2514 -5.97507 33.5484 0.0 0.0 0.0 0.0 0.0 0.0 -0.204919 12.5689 6.62739 0.0 1.84355 0.0 -3.92275 5.0233603 7.30105 0.0 -8.26925 0.0 4.96592 -9.40951 22.4684 0.0 37.0199 0.0 20.5544 5.6458197 -19.1433 0.0 -23.19514 0.0 
  -0.4275859832763672 -9.76843994140625 10.343399658203126 3.50216 82.8578 27.3298 -5.54664 -16.4036 -6.15265 16.9872 27.8938 -7.35073 12.6649 46.0481 -37.2798 0.15072 -64.3312 -19.8721 -124.9273 -1.20189 -12.5334 -31.5538 -11.6576 -305.481 0.0 51.2847 0.0 8.11759 -8.90009 -7.01967 0.0 0.0 0.0 0.0 0.0 0.0 110.1016 -2.11742 2.18409 22.3511 9.9025 11.1255 0.0 31.6275 0.0 -8.50784 -5.4318 27.8298 0.0 0.0 0.0 0.0 0.0 0.0 -0.644888 12.7057 6.92365 0.0 2.27656 0.0 -3.82417 4.8926 6.93033 0.0 -8.36164 0.0 5.11642 -9.04113 23.1636 0.0 36.3028 0.0 19.9641 5.25529 -19.0572 0.0 -23.325401 0.0 
  -0.39465099334716797 -9.776179809570312 10.335999755859374 7.49168 82.635 23.6008 -4.87958 -17.0049 -5.06517 15.4421 29.1183 -7.32077 12.2714 45.5862 -36.9134 0.257655 -64.1287 -20.1267 -124.469696 -1.03248 -12.995 -31.2395 -11.5746 -305.886 0.0 51.5564 0.0 8.67722 -8.81813 -6.68664 0.0 0.0 0.0 0.0 0.0 0.0 110.5081 -1.50445 2.14487 22.4456 10.2826 8.09769 0.0 28.7878 0.0 -8.8693 -4.79065 20.5691 0.0 0.0 0.0 0.0 0.0 0.0 -1.05862 12.9484 7.08787 0.0 2.81768 0.0 -3.77941 4.7320004 6.61718 0.0 -8.44684 0.0 5.24035 -8.55036 23.5567 0.0 35.7545 0.0 19.5459 4.983 -18.6319 0.0 -23.51019 0.0 
